<mxfile host="Electron" agent="Mozilla/5.0 (Windows NT 10.0; Win64; x64) AppleWebKit/537.36 (KHTML, like Gecko) draw.io/27.0.9 Chrome/134.0.6998.205 Electron/35.4.0 Safari/537.36" version="27.0.9">
  <diagram name="Page-1" id="m5X9Ndlb4C0uwIu__Fkk">
    <mxGraphModel dx="1042" dy="660" grid="1" gridSize="10" guides="1" tooltips="1" connect="1" arrows="1" fold="1" page="1" pageScale="1" pageWidth="850" pageHeight="1100" math="0" shadow="0">
      <root>
        <mxCell id="0" />
        <mxCell id="1" parent="0" />
        <mxCell id="iRyP6-jP_q9jGBDrqHdK-1" value="" style="rounded=0;whiteSpace=wrap;html=1;fillColor=none;dashed=1;strokeColor=light-dark(#ababab, #ededed);" parent="1" vertex="1">
          <mxGeometry x="150" y="142.56" width="130" height="490" as="geometry" />
        </mxCell>
        <mxCell id="iRyP6-jP_q9jGBDrqHdK-2" value="&lt;font&gt;&lt;b style=&quot;&quot;&gt;Sources&lt;/b&gt;&lt;/font&gt;" style="rounded=1;whiteSpace=wrap;html=1;dashed=1;strokeColor=light-dark(#c7c2c2, #ededed);fontSize=14;" parent="1" vertex="1">
          <mxGeometry x="163" y="112.56" width="100" height="50" as="geometry" />
        </mxCell>
        <mxCell id="iRyP6-jP_q9jGBDrqHdK-7" value="&lt;b&gt;&lt;font style=&quot;font-size: 12px;&quot;&gt;Bronze Layer&lt;/font&gt;&lt;/b&gt;" style="rounded=0;whiteSpace=wrap;html=1;fillColor=#ffe6cc;strokeColor=#d79b00;fontSize=14;" parent="1" vertex="1">
          <mxGeometry x="440" y="120" width="140" height="40" as="geometry" />
        </mxCell>
        <mxCell id="iRyP6-jP_q9jGBDrqHdK-8" value="" style="rounded=0;whiteSpace=wrap;html=1;fillColor=none;strokeColor=#d79b00;" parent="1" vertex="1">
          <mxGeometry x="440" y="160" width="140" height="390" as="geometry" />
        </mxCell>
        <mxCell id="iRyP6-jP_q9jGBDrqHdK-15" value="" style="image;aspect=fixed;html=1;points=[];align=center;fontSize=12;image=img/lib/azure2/general/Folder_Blank.svg;" parent="1" vertex="1">
          <mxGeometry x="175.5" y="212.56" width="49.29" height="40" as="geometry" />
        </mxCell>
        <mxCell id="iRyP6-jP_q9jGBDrqHdK-16" value="" style="image;aspect=fixed;html=1;points=[];align=center;fontSize=12;image=img/lib/azure2/general/File.svg;" parent="1" vertex="1">
          <mxGeometry x="212.85" y="232.56" width="24.35" height="30" as="geometry" />
        </mxCell>
        <mxCell id="iRyP6-jP_q9jGBDrqHdK-17" value="CRM" style="text;html=1;align=center;verticalAlign=middle;whiteSpace=wrap;rounded=0;fontStyle=1" parent="1" vertex="1">
          <mxGeometry x="175.7" y="262.56" width="61.5" height="29" as="geometry" />
        </mxCell>
        <mxCell id="iRyP6-jP_q9jGBDrqHdK-18" value="" style="image;aspect=fixed;html=1;points=[];align=center;fontSize=12;image=img/lib/azure2/general/Folder_Blank.svg;" parent="1" vertex="1">
          <mxGeometry x="180.5" y="372.56" width="54.5" height="44.23" as="geometry" />
        </mxCell>
        <mxCell id="iRyP6-jP_q9jGBDrqHdK-19" value="" style="image;aspect=fixed;html=1;points=[];align=center;fontSize=12;image=img/lib/azure2/general/File.svg;" parent="1" vertex="1">
          <mxGeometry x="212.04" y="390" width="25.16" height="31" as="geometry" />
        </mxCell>
        <mxCell id="iRyP6-jP_q9jGBDrqHdK-20" value="ERP" style="text;html=1;align=center;verticalAlign=middle;whiteSpace=wrap;rounded=0;fontStyle=1" parent="1" vertex="1">
          <mxGeometry x="180.5" y="421" width="60" height="30" as="geometry" />
        </mxCell>
        <mxCell id="jI-nzRKR6AHuLzBKIUge-7" value="" style="edgeStyle=orthogonalEdgeStyle;rounded=0;orthogonalLoop=1;jettySize=auto;html=1;" parent="1" edge="1">
          <mxGeometry relative="1" as="geometry">
            <mxPoint x="510" y="236.12" as="targetPoint" />
          </mxGeometry>
        </mxCell>
        <mxCell id="iRyP6-jP_q9jGBDrqHdK-52" value="&lt;font style=&quot;font-size: 15px;&quot;&gt;&lt;b&gt;Data Flow Diagram&lt;/b&gt;&lt;/font&gt;" style="text;html=1;align=center;verticalAlign=middle;whiteSpace=wrap;rounded=0;" parent="1" vertex="1">
          <mxGeometry x="36.85" y="20" width="183.15" height="30" as="geometry" />
        </mxCell>
        <mxCell id="jI-nzRKR6AHuLzBKIUge-1" style="edgeStyle=orthogonalEdgeStyle;rounded=0;orthogonalLoop=1;jettySize=auto;html=1;exitX=0.5;exitY=1;exitDx=0;exitDy=0;" parent="1" source="iRyP6-jP_q9jGBDrqHdK-1" target="iRyP6-jP_q9jGBDrqHdK-1" edge="1">
          <mxGeometry relative="1" as="geometry" />
        </mxCell>
        <mxCell id="jI-nzRKR6AHuLzBKIUge-4" style="edgeStyle=orthogonalEdgeStyle;rounded=0;orthogonalLoop=1;jettySize=auto;html=1;exitX=0.5;exitY=1;exitDx=0;exitDy=0;" parent="1" source="iRyP6-jP_q9jGBDrqHdK-1" target="iRyP6-jP_q9jGBDrqHdK-1" edge="1">
          <mxGeometry relative="1" as="geometry" />
        </mxCell>
        <mxCell id="jI-nzRKR6AHuLzBKIUge-8" value="crm_cust_info" style="rounded=1;whiteSpace=wrap;html=1;" parent="1" vertex="1">
          <mxGeometry x="450" y="189" width="120" height="27" as="geometry" />
        </mxCell>
        <mxCell id="jI-nzRKR6AHuLzBKIUge-9" value="crm_prd_info" style="rounded=1;whiteSpace=wrap;html=1;" parent="1" vertex="1">
          <mxGeometry x="450" y="228.56" width="120" height="27" as="geometry" />
        </mxCell>
        <mxCell id="jI-nzRKR6AHuLzBKIUge-10" value="crm_sales_details" style="rounded=1;whiteSpace=wrap;html=1;" parent="1" vertex="1">
          <mxGeometry x="450" y="267" width="120" height="27" as="geometry" />
        </mxCell>
        <mxCell id="jI-nzRKR6AHuLzBKIUge-11" value="" style="endArrow=classic;html=1;rounded=0;exitX=0.836;exitY=0.488;exitDx=0;exitDy=0;exitPerimeter=0;entryX=0;entryY=0.5;entryDx=0;entryDy=0;" parent="1" target="jI-nzRKR6AHuLzBKIUge-9" edge="1">
          <mxGeometry width="50" height="50" relative="1" as="geometry">
            <mxPoint x="240.49659999999997" y="240.69999999999993" as="sourcePoint" />
            <mxPoint x="457.29" y="200" as="targetPoint" />
            <Array as="points">
              <mxPoint x="327.29" y="240.5" />
            </Array>
          </mxGeometry>
        </mxCell>
        <mxCell id="jI-nzRKR6AHuLzBKIUge-12" value="" style="endArrow=classic;html=1;rounded=0;" parent="1" edge="1">
          <mxGeometry width="50" height="50" relative="1" as="geometry">
            <mxPoint x="320" y="201" as="sourcePoint" />
            <mxPoint x="450" y="201" as="targetPoint" />
          </mxGeometry>
        </mxCell>
        <mxCell id="jI-nzRKR6AHuLzBKIUge-13" value="" style="endArrow=classic;html=1;rounded=0;" parent="1" edge="1">
          <mxGeometry width="50" height="50" relative="1" as="geometry">
            <mxPoint x="320" y="280" as="sourcePoint" />
            <mxPoint x="450" y="280" as="targetPoint" />
          </mxGeometry>
        </mxCell>
        <mxCell id="jI-nzRKR6AHuLzBKIUge-14" value="" style="endArrow=none;html=1;rounded=0;" parent="1" edge="1">
          <mxGeometry width="50" height="50" relative="1" as="geometry">
            <mxPoint x="320" y="280" as="sourcePoint" />
            <mxPoint x="320" y="200" as="targetPoint" />
          </mxGeometry>
        </mxCell>
        <mxCell id="jI-nzRKR6AHuLzBKIUge-15" value="erp_loc_a101" style="rounded=1;whiteSpace=wrap;html=1;" parent="1" vertex="1">
          <mxGeometry x="450" y="356" width="120" height="27" as="geometry" />
        </mxCell>
        <mxCell id="jI-nzRKR6AHuLzBKIUge-16" value="erp_cust_az12" style="rounded=1;whiteSpace=wrap;html=1;" parent="1" vertex="1">
          <mxGeometry x="450" y="395.56" width="120" height="27" as="geometry" />
        </mxCell>
        <mxCell id="jI-nzRKR6AHuLzBKIUge-17" value="erp_px_cat_g1v2" style="rounded=1;whiteSpace=wrap;html=1;" parent="1" vertex="1">
          <mxGeometry x="450" y="437" width="120" height="27" as="geometry" />
        </mxCell>
        <mxCell id="jI-nzRKR6AHuLzBKIUge-18" value="" style="endArrow=classic;html=1;rounded=0;entryX=0;entryY=0.5;entryDx=0;entryDy=0;" parent="1" edge="1">
          <mxGeometry width="50" height="50" relative="1" as="geometry">
            <mxPoint x="310" y="370" as="sourcePoint" />
            <mxPoint x="450" y="368.5" as="targetPoint" />
          </mxGeometry>
        </mxCell>
        <mxCell id="jI-nzRKR6AHuLzBKIUge-19" value="" style="endArrow=classic;html=1;rounded=0;" parent="1" edge="1">
          <mxGeometry width="50" height="50" relative="1" as="geometry">
            <mxPoint x="310" y="447" as="sourcePoint" />
            <mxPoint x="450" y="447" as="targetPoint" />
          </mxGeometry>
        </mxCell>
        <mxCell id="jI-nzRKR6AHuLzBKIUge-20" value="" style="endArrow=none;html=1;rounded=0;" parent="1" edge="1">
          <mxGeometry width="50" height="50" relative="1" as="geometry">
            <mxPoint x="310" y="447" as="sourcePoint" />
            <mxPoint x="310" y="367" as="targetPoint" />
          </mxGeometry>
        </mxCell>
        <mxCell id="jI-nzRKR6AHuLzBKIUge-21" value="" style="endArrow=classic;html=1;rounded=0;" parent="1" edge="1">
          <mxGeometry width="50" height="50" relative="1" as="geometry">
            <mxPoint x="240" y="407" as="sourcePoint" />
            <mxPoint x="450" y="407" as="targetPoint" />
            <Array as="points" />
          </mxGeometry>
        </mxCell>
      </root>
    </mxGraphModel>
  </diagram>
</mxfile>
